<svg width="97" height="97" viewBox="0 0 97 97" fill="none" xmlns="http://www.w3.org/2000/svg">
<path d="M25.8666 35.5667H22.6333C21.7409 35.5667 21.0166 36.2893 21.0166 37.1833V50.1167C21.0166 51.0107 21.7409 51.7333 22.6333 51.7333H25.8666C28.5406 51.7333 30.7166 49.5573 30.7166 46.8833C30.7166 45.6417 30.2478 44.5084 29.4782 43.65C30.2478 42.7915 30.7166 41.6583 30.7166 40.4167C30.7166 37.7427 28.5406 35.5667 25.8666 35.5667ZM25.8666 48.5H24.2499V45.2667H25.8666C26.7574 45.2667 27.4833 45.9909 27.4833 46.8833C27.4833 47.7757 26.7574 48.5 25.8666 48.5ZM25.8666 42.0333H24.2499V38.8H25.8666C26.7574 38.8 27.4833 39.5243 27.4833 40.4167C27.4833 41.3091 26.7574 42.0333 25.8666 42.0333Z" fill="#252525"/>
<path d="M42.034 40.4167C42.034 37.7427 39.858 35.5667 37.184 35.5667H33.9507C33.0583 35.5667 32.334 36.2893 32.334 37.1833V51.7333H35.5673V45.2667H36.471C37.9729 46.9836 38.8007 49.1531 38.8007 51.4552V51.7333H42.034V51.4552C42.034 48.9138 41.2903 46.4889 39.9065 44.426C41.1885 43.553 42.034 42.0818 42.034 40.4167ZM35.5673 38.8H37.184C38.0748 38.8 38.8007 39.5243 38.8007 40.4167C38.8007 41.3091 38.0748 42.0333 37.184 42.0333H35.5673V38.8Z" fill="#252525"/>
<path d="M48.5004 35.5667C45.8264 35.5667 43.6504 37.7427 43.6504 40.4167V51.7333H46.8837V46.8833H50.1171V51.7333H53.3504V40.4167C53.3504 37.7427 51.1744 35.5667 48.5004 35.5667ZM46.8837 43.65V40.4167C46.8837 39.5243 47.6096 38.8 48.5004 38.8C49.3912 38.8 50.1171 39.5243 50.1171 40.4167V43.65H46.8837Z" fill="#252525"/>
<path d="M61.4335 43.2686L58.0304 36.4608C57.6941 35.7899 56.9504 35.4407 56.2116 35.6104C55.4825 35.7834 54.9668 36.4349 54.9668 37.1851V51.7351H58.2001V44.0333L61.6032 50.841C61.8813 51.3988 62.4471 51.7351 63.0501 51.7351C63.173 51.7351 63.2975 51.7205 63.422 51.693C64.1511 51.52 64.6668 50.8685 64.6668 50.1184V35.5684H61.4335V43.2686Z" fill="#252525"/>
<path d="M71.1332 35.5667H67.8999C67.0075 35.5667 66.2832 36.2893 66.2832 37.1833V50.1167C66.2832 51.0107 67.0075 51.7333 67.8999 51.7333H71.1332C73.8072 51.7333 75.9832 49.5573 75.9832 46.8833V40.4167C75.9832 37.7427 73.8072 35.5667 71.1332 35.5667ZM72.7499 46.8833C72.7499 47.7757 72.024 48.5 71.1332 48.5H69.5165V38.8H71.1332C72.024 38.8 72.7499 39.5243 72.7499 40.4167V46.8833Z" fill="#252525"/>
<path d="M90.5333 19.4C91.4257 19.4 92.15 18.6773 92.15 17.7833V14.55H97V11.3167H92.15V8.08333C92.15 7.18932 91.4257 6.46667 90.5333 6.46667H87.3V0H84.0667V6.46667H80.8333C79.9409 6.46667 79.2167 7.18932 79.2167 8.08333V11.3167H17.7833V8.08333C17.7833 7.18932 17.0591 6.46667 16.1667 6.46667H12.9333V0H9.7V6.46667H6.46667C5.57427 6.46667 4.85 7.18932 4.85 8.08333V11.3167H0V14.55H4.85V17.7833C4.85 18.6773 5.57427 19.4 6.46667 19.4H9.7V77.6H6.46667C5.57427 77.6 4.85 78.3226 4.85 79.2167V82.45H0V85.6833H4.85V88.9167C4.85 89.8107 5.57427 90.5333 6.46667 90.5333H9.7V97H12.9333V90.5333H16.1667C17.0591 90.5333 17.7833 89.8107 17.7833 88.9167V85.6833H51.064L58.6737 93.293C58.9889 93.6082 59.4028 93.7667 59.8167 93.7667C60.2305 93.7667 60.6444 93.6082 60.9597 93.293L68.5693 85.6833H79.2167V88.9167C79.2167 89.8107 79.9409 90.5333 80.8333 90.5333H84.0667V97H87.3V90.5333H90.5333C91.4257 90.5333 92.15 89.8107 92.15 88.9167V85.6833H97V82.45H92.15V79.2167C92.15 78.3226 91.4257 77.6 90.5333 77.6H87.3V19.4H90.5333ZM82.45 9.7H88.9167V16.1667H82.45V9.7ZM8.08333 9.7H14.55V16.1667H8.08333V9.7ZM14.55 87.3H8.08333V80.8333H14.55V87.3ZM46.214 72.75C48.1217 72.75 49.913 72.0079 51.2613 70.6597C52.6096 69.3114 53.35 67.5201 53.35 65.614V64.6667H50.1167V65.614C50.1167 66.0877 50.0229 66.5452 49.8612 66.9753L41.8167 58.9307L56.6286 61.2102C56.9018 65.3505 58.3924 69.3081 60.9047 72.6077L53.2093 80.3031C49.9097 77.7908 45.9505 76.3002 41.8102 76.027L39.5323 61.2167L47.5753 69.2596C47.1436 69.4197 46.6877 69.5151 46.214 69.5151H45.2667V72.7484L46.214 72.75ZM59.8167 89.864L54.0193 84.0667L64.6667 73.4193L70.464 79.2167L59.8167 89.864ZM88.9167 87.3H82.45V80.8333H88.9167V87.3ZM84.0667 77.6H80.8333C79.9409 77.6 79.2167 78.3226 79.2167 79.2167V82.45H71.8026L73.893 80.3596C74.5251 79.7275 74.5251 78.7058 73.893 78.0737L65.8097 69.9903C65.1775 69.3582 64.1558 69.3582 63.5237 69.9903L63.2133 70.3008C61.0146 67.2614 59.8167 63.5997 59.8167 59.8167C59.8167 59.0196 59.2347 58.3407 58.4457 58.2194L37.4291 54.9861C36.9247 54.9101 36.4057 55.0766 36.0403 55.4403C35.6766 55.8057 35.5069 56.3198 35.5861 56.8291L38.8194 77.8457C38.9406 78.633 39.6197 79.2167 40.4167 79.2167C44.1011 79.2167 47.6642 80.3613 50.655 82.45H17.7833V79.2167C17.7833 78.3226 17.0591 77.6 16.1667 77.6H12.9333V19.4H16.1667C17.0591 19.4 17.7833 18.6773 17.7833 17.7833V14.55H79.2167V17.7833C79.2167 18.6773 79.9409 19.4 80.8333 19.4H84.0667V77.6Z" fill="#252525"/>
</svg>
