<svg width="600" height="150" viewBox="0 0 549 126" fill="none" xmlns="http://www.w3.org/2000/svg">
<path d="M53.496 94.848C51.1067 95.4453 48.0347 95.9573 44.28 96.384C40.5253 96.8107 36.9413 97.024 33.528 97.024C23.7147 97.024 16.4613 95.7013 11.768 93.056C7.16 90.3253 4.088 85.9307 2.552 79.872C1.10133 73.728 0.376 64.4267 0.376 51.968C0.376 39.5947 1.144 30.336 2.68 24.192C4.216 18.048 7.288 13.6533 11.896 11.008C16.504 8.27733 23.7147 6.91199 33.528 6.91199C36.9413 6.91199 40.44 7.12533 44.024 7.55199C47.6933 7.97866 50.7227 8.53333 53.112 9.216V26.24C45.3467 25.5573 40.568 25.216 38.776 25.216C33.656 25.216 30.1573 25.7707 28.28 26.88C26.4027 27.904 25.208 30.08 24.696 33.408C24.184 36.736 23.928 42.9227 23.928 51.968C23.928 61.0987 24.184 67.328 24.696 70.656C25.208 73.8987 26.4027 76.0747 28.28 77.184C30.1573 78.208 33.656 78.72 38.776 78.72C44.2373 78.72 49.144 78.3787 53.496 77.696V94.848ZM63.766 30.72H84.502L85.014 41.6H86.166C87.702 37.1627 89.8353 34.0907 92.566 32.384C95.2967 30.592 99.0087 29.696 103.702 29.696V49.92C99.0087 49.92 95.382 50.4747 92.822 51.584C90.262 52.6933 88.3847 54.6987 87.19 57.6C85.9953 60.5013 85.398 64.6827 85.398 70.144V96H63.766V30.72ZM164.255 68.48H130.975C130.975 72.6613 131.231 75.52 131.743 77.056C132.255 78.592 133.364 79.5733 135.071 80C136.778 80.4267 139.978 80.64 144.671 80.64C147.999 80.64 153.844 80.384 162.207 79.872V94.848C159.818 95.4453 156.49 95.9573 152.223 96.384C147.956 96.8107 143.732 97.024 139.551 97.024C130.25 97.024 123.466 95.9147 119.199 93.696C115.018 91.4773 112.372 88.192 111.263 83.84C110.154 79.4027 109.599 72.6187 109.599 63.488C109.599 54.4427 110.154 47.7013 111.263 43.264C112.372 38.7413 114.89 35.3707 118.815 33.152C122.74 30.848 129.012 29.696 137.631 29.696C146.25 29.696 152.394 30.7627 156.063 32.896C159.818 34.944 162.122 38.1013 162.975 42.368C163.828 46.6347 164.255 53.6747 164.255 63.488V68.48ZM137.631 45.056C135.583 45.056 134.09 45.312 133.151 45.824C132.298 46.336 131.7 47.4453 131.359 49.152C131.103 50.7733 130.975 53.5467 130.975 57.472H144.159C144.159 53.4613 143.988 50.6453 143.647 49.024C143.391 47.3173 142.836 46.2507 141.983 45.824C141.13 45.312 139.679 45.056 137.631 45.056ZM188.971 97.024C183.254 97.024 179.072 95.4453 176.427 92.288C173.782 89.0453 172.459 84.0107 172.459 77.184C172.459 72.064 173.014 68.096 174.123 65.28C175.232 62.464 177.152 60.416 179.883 59.136C182.614 57.856 186.496 57.216 191.531 57.216C194.944 57.216 199.638 57.3867 205.611 57.728V55.168C205.611 52.1813 205.312 50.0907 204.715 48.896C204.118 47.7013 203.008 46.9333 201.387 46.592C199.766 46.2507 196.864 46.08 192.683 46.08C187.734 46.08 182.102 46.336 175.787 46.848V31.744C183.638 30.3787 191.488 29.696 199.339 29.696C207.531 29.696 213.59 30.6347 217.515 32.512C221.526 34.304 224.128 37.0773 225.323 40.832C226.603 44.5013 227.243 49.792 227.243 56.704V96H206.379L205.867 88.576H204.715C202.923 91.8187 200.704 94.0373 198.059 95.232C195.414 96.4267 192.384 97.024 188.971 97.024ZM198.827 81.28C200.363 81.28 201.558 81.1093 202.411 80.768C203.35 80.3413 204.075 79.6587 204.587 78.72C205.27 77.44 205.611 75.0507 205.611 71.552V68.352H198.571C196.864 68.352 195.584 68.5227 194.731 68.864C193.963 69.12 193.451 69.7173 193.195 70.656C192.939 71.5947 192.811 73.088 192.811 75.136C192.811 77.6107 193.152 79.2747 193.835 80.128C194.518 80.896 196.182 81.28 198.827 81.28ZM244.148 96V47.104H234.548V30.72H244.148V11.776H266.036V30.72H278.068V47.104H266.036V96H244.148ZM286.013 18.176V0.895996H308.029V18.176H286.013ZM286.141 96V30.72H308.029V96H286.141ZM330.896 96L315.024 30.72H336.784L345.36 76.032H346.64L354.832 30.72H376.336L360.464 96H330.896ZM435.005 68.48H401.725C401.725 72.6613 401.981 75.52 402.493 77.056C403.005 78.592 404.114 79.5733 405.821 80C407.528 80.4267 410.728 80.64 415.421 80.64C418.749 80.64 424.594 80.384 432.957 79.872V94.848C430.568 95.4453 427.24 95.9573 422.973 96.384C418.706 96.8107 414.482 97.024 410.301 97.024C401 97.024 394.216 95.9147 389.949 93.696C385.768 91.4773 383.122 88.192 382.013 83.84C380.904 79.4027 380.349 72.6187 380.349 63.488C380.349 54.4427 380.904 47.7013 382.013 43.264C383.122 38.7413 385.64 35.3707 389.565 33.152C393.49 30.848 399.762 29.696 408.381 29.696C417 29.696 423.144 30.7627 426.813 32.896C430.568 34.944 432.872 38.1013 433.725 42.368C434.578 46.6347 435.005 53.6747 435.005 63.488V68.48ZM408.381 45.056C406.333 45.056 404.84 45.312 403.901 45.824C403.048 46.336 402.45 47.4453 402.109 49.152C401.853 50.7733 401.725 53.5467 401.725 57.472H414.909C414.909 53.4613 414.738 50.6453 414.397 49.024C414.141 47.3173 413.586 46.2507 412.733 45.824C411.88 45.312 410.429 45.056 408.381 45.056ZM1.912 157.936H30.328C41.7627 157.936 49.8693 159.216 54.648 161.776C59.512 164.251 62.4987 168.261 63.608 173.808C64.8027 179.355 65.4 188.741 65.4 201.968C65.4 215.195 64.8027 224.581 63.608 230.128C62.4987 235.675 59.512 239.728 54.648 242.288C49.8693 244.763 41.7627 246 30.328 246H1.912V157.936ZM30.328 227.696C34.424 227.696 37.1973 227.312 38.648 226.544C40.0987 225.691 40.9947 223.685 41.336 220.528C41.7627 217.285 41.976 211.099 41.976 201.968C41.976 192.752 41.7627 186.565 41.336 183.408C40.9947 180.251 40.0987 178.288 38.648 177.52C37.2827 176.667 34.5093 176.24 30.328 176.24H25.336V227.696H30.328ZM129.63 218.48H96.35C96.35 222.661 96.606 225.52 97.118 227.056C97.63 228.592 98.7393 229.573 100.446 230C102.153 230.427 105.353 230.64 110.046 230.64C113.374 230.64 119.219 230.384 127.582 229.872V244.848C125.193 245.445 121.865 245.957 117.598 246.384C113.331 246.811 109.107 247.024 104.926 247.024C95.6247 247.024 88.8407 245.915 84.574 243.696C80.3927 241.477 77.7473 238.192 76.638 233.84C75.5287 229.403 74.974 222.619 74.974 213.488C74.974 204.443 75.5287 197.701 76.638 193.264C77.7473 188.741 80.2647 185.371 84.19 183.152C88.1153 180.848 94.3873 179.696 103.006 179.696C111.625 179.696 117.769 180.763 121.438 182.896C125.193 184.944 127.497 188.101 128.35 192.368C129.203 196.635 129.63 203.675 129.63 213.488V218.48ZM103.006 195.056C100.958 195.056 99.4647 195.312 98.526 195.824C97.6727 196.336 97.0753 197.445 96.734 199.152C96.478 200.773 96.35 203.547 96.35 207.472H109.534C109.534 203.461 109.363 200.645 109.022 199.024C108.766 197.317 108.211 196.251 107.358 195.824C106.505 195.312 105.054 195.056 103.006 195.056ZM163.434 247.024C159.594 247.024 155.413 246.853 150.89 246.512C146.453 246.171 142.655 245.701 139.498 245.104V230.128C145.386 230.811 150.933 231.152 156.138 231.152C159.551 231.152 161.983 231.067 163.434 230.896C164.97 230.64 165.951 230.213 166.378 229.616C166.805 228.933 167.018 227.867 167.018 226.416C167.018 225.051 166.89 224.112 166.634 223.6C166.463 223.003 165.994 222.576 165.226 222.32C164.458 222.064 163.135 221.808 161.258 221.552L148.202 219.76C144.106 219.248 141.333 217.413 139.882 214.256C138.431 211.099 137.706 206.235 137.706 199.664C137.706 194.288 138.73 190.149 140.778 187.248C142.826 184.347 145.642 182.384 149.226 181.36C152.895 180.251 157.418 179.696 162.794 179.696C166.378 179.696 170.175 179.909 174.186 180.336C178.197 180.677 181.439 181.104 183.914 181.616V196.592C176.405 195.909 171.199 195.568 168.298 195.568C165.141 195.568 162.879 195.696 161.514 195.952C160.149 196.123 159.21 196.507 158.698 197.104C158.271 197.616 158.058 198.555 158.058 199.92C158.058 201.2 158.143 202.139 158.314 202.736C158.485 203.248 158.869 203.632 159.466 203.888C160.149 204.059 161.343 204.272 163.05 204.528L174.57 206.064C177.386 206.491 179.69 207.216 181.482 208.24C183.274 209.264 184.682 211.141 185.706 213.872C186.815 216.517 187.37 220.4 187.37 225.52C187.37 231.579 186.389 236.187 184.426 239.344C182.463 242.416 179.775 244.464 176.362 245.488C173.034 246.512 168.725 247.024 163.434 247.024ZM196.638 168.176V150.896H218.654V168.176H196.638ZM196.766 246V180.72H218.654V246H196.766ZM255.217 272.24C251.548 272.24 247.708 272.069 243.697 271.728C239.686 271.387 236.401 271.003 233.841 270.576V255.728L249.585 255.856C254.364 255.856 257.649 255.6 259.441 255.088C261.233 254.576 262.342 253.509 262.769 251.888C263.281 250.267 263.537 247.28 263.537 242.928V237.68H262.513C260.977 240.581 258.972 242.587 256.497 243.696C254.022 244.805 250.993 245.36 247.409 245.36C242.716 245.36 239.046 244.379 236.401 242.416C233.756 240.453 231.836 237.125 230.641 232.432C229.446 227.653 228.849 220.997 228.849 212.464C228.849 203.76 229.446 197.061 230.641 192.368C231.921 187.675 233.841 184.389 236.401 182.512C239.046 180.635 242.673 179.696 247.281 179.696C250.865 179.696 253.98 180.336 256.625 181.616C259.27 182.811 261.318 185.029 262.769 188.272H264.049L264.561 180.72H285.169V238.576C285.169 247.365 284.572 253.979 283.377 258.416C282.268 262.853 279.58 266.267 275.313 268.656C271.132 271.045 264.433 272.24 255.217 272.24ZM257.137 227.696C259.014 227.696 260.337 227.483 261.105 227.056C261.958 226.544 262.556 225.52 262.897 223.984C263.153 222.875 263.324 221.339 263.409 219.376C263.494 217.328 263.537 215.067 263.537 212.592C263.537 207.045 263.366 203.504 263.025 201.968C262.684 200.176 262.086 198.981 261.233 198.384C260.38 197.787 259.014 197.488 257.137 197.488C254.833 197.488 253.254 197.744 252.401 198.256C251.633 198.768 251.121 200.005 250.865 201.968C250.609 203.845 250.481 207.387 250.481 212.592C250.481 217.797 250.609 221.381 250.865 223.344C251.121 225.221 251.633 226.416 252.401 226.928C253.254 227.44 254.833 227.696 257.137 227.696ZM330.805 211.184C330.805 206.491 330.677 203.291 330.421 201.584C330.25 199.877 329.781 198.811 329.013 198.384C328.33 197.872 326.965 197.616 324.917 197.616C322.869 197.616 321.418 197.957 320.565 198.64C319.797 199.237 319.285 200.475 319.029 202.352C318.858 204.144 318.773 207.387 318.773 212.08V246H297.141V180.72H317.877L318.389 188.272H319.413C322.4 182.555 327.776 179.696 335.541 179.696C340.32 179.696 343.904 180.592 346.293 182.384C348.768 184.176 350.389 186.779 351.157 190.192C352.01 193.52 352.437 198.171 352.437 204.144V246H330.805V211.184ZM69.496 396V338.528H68.344L55.416 396H37.752L24.824 338.528H23.672V396H1.912V307.936H35.064L46.584 359.52H47.608L58.872 307.936H91.896V396H69.496ZM118.846 397.024C113.129 397.024 108.947 395.445 106.302 392.288C103.657 389.045 102.334 384.011 102.334 377.184C102.334 372.064 102.889 368.096 103.998 365.28C105.107 362.464 107.027 360.416 109.758 359.136C112.489 357.856 116.371 357.216 121.406 357.216C124.819 357.216 129.513 357.387 135.486 357.728V355.168C135.486 352.181 135.187 350.091 134.59 348.896C133.993 347.701 132.883 346.933 131.262 346.592C129.641 346.251 126.739 346.08 122.558 346.08C117.609 346.08 111.977 346.336 105.662 346.848V331.744C113.513 330.379 121.363 329.696 129.214 329.696C137.406 329.696 143.465 330.635 147.39 332.512C151.401 334.304 154.003 337.077 155.198 340.832C156.478 344.501 157.118 349.792 157.118 356.704V396H136.254L135.742 388.576H134.59C132.798 391.819 130.579 394.037 127.934 395.232C125.289 396.427 122.259 397.024 118.846 397.024ZM128.702 381.28C130.238 381.28 131.433 381.109 132.286 380.768C133.225 380.341 133.95 379.659 134.462 378.72C135.145 377.44 135.486 375.051 135.486 371.552V368.352H128.446C126.739 368.352 125.459 368.523 124.606 368.864C123.838 369.12 123.326 369.717 123.07 370.656C122.814 371.595 122.686 373.088 122.686 375.136C122.686 377.611 123.027 379.275 123.71 380.128C124.393 380.896 126.057 381.28 128.702 381.28ZM169.016 330.72H189.752L190.264 341.6H191.416C192.952 337.163 195.085 334.091 197.816 332.384C200.547 330.592 204.259 329.696 208.952 329.696V349.92C204.259 349.92 200.632 350.475 198.072 351.584C195.512 352.693 193.635 354.699 192.44 357.6C191.245 360.501 190.648 364.683 190.648 370.144V396H169.016V330.72ZM253.49 396L241.458 371.808H238.898V396H217.266V300.896H238.898V355.424H241.458L254.13 330.72H276.658L259.378 361.696L276.914 396H253.49ZM335.255 368.48H301.975C301.975 372.661 302.231 375.52 302.743 377.056C303.255 378.592 304.364 379.573 306.071 380C307.778 380.427 310.978 380.64 315.671 380.64C318.999 380.64 324.844 380.384 333.207 379.872V394.848C330.818 395.445 327.49 395.957 323.223 396.384C318.956 396.811 314.732 397.024 310.551 397.024C301.25 397.024 294.466 395.915 290.199 393.696C286.018 391.477 283.372 388.192 282.263 383.84C281.154 379.403 280.599 372.619 280.599 363.488C280.599 354.443 281.154 347.701 282.263 343.264C283.372 338.741 285.89 335.371 289.815 333.152C293.74 330.848 300.012 329.696 308.631 329.696C317.25 329.696 323.394 330.763 327.063 332.896C330.818 334.944 333.122 338.101 333.975 342.368C334.828 346.635 335.255 353.675 335.255 363.488V368.48ZM308.631 345.056C306.583 345.056 305.09 345.312 304.151 345.824C303.298 346.336 302.7 347.445 302.359 349.152C302.103 350.773 301.975 353.547 301.975 357.472H315.159C315.159 353.461 314.988 350.645 314.647 349.024C314.391 347.317 313.836 346.251 312.983 345.824C312.13 345.312 310.679 345.056 308.631 345.056ZM350.898 396V347.104H341.298V330.72H350.898V311.776H372.786V330.72H384.818V347.104H372.786V396H350.898ZM392.763 318.176V300.896H414.779V318.176H392.763ZM392.891 396V330.72H414.779V396H392.891ZM460.43 361.184C460.43 356.491 460.302 353.291 460.046 351.584C459.875 349.877 459.406 348.811 458.638 348.384C457.955 347.872 456.59 347.616 454.542 347.616C452.494 347.616 451.043 347.957 450.19 348.64C449.422 349.237 448.91 350.475 448.654 352.352C448.483 354.144 448.398 357.387 448.398 362.08V396H426.766V330.72H447.502L448.014 338.272H449.038C452.025 332.555 457.401 329.696 465.166 329.696C469.945 329.696 473.529 330.592 475.918 332.384C478.393 334.176 480.014 336.779 480.782 340.192C481.635 343.52 482.062 348.171 482.062 354.144V396H460.43V361.184ZM518.592 422.24C514.923 422.24 511.083 422.069 507.072 421.728C503.061 421.387 499.776 421.003 497.216 420.576V405.728L512.96 405.856C517.739 405.856 521.024 405.6 522.816 405.088C524.608 404.576 525.717 403.509 526.144 401.888C526.656 400.267 526.912 397.28 526.912 392.928V387.68H525.888C524.352 390.581 522.347 392.587 519.872 393.696C517.397 394.805 514.368 395.36 510.784 395.36C506.091 395.36 502.421 394.379 499.776 392.416C497.131 390.453 495.211 387.125 494.016 382.432C492.821 377.653 492.224 370.997 492.224 362.464C492.224 353.76 492.821 347.061 494.016 342.368C495.296 337.675 497.216 334.389 499.776 332.512C502.421 330.635 506.048 329.696 510.656 329.696C514.24 329.696 517.355 330.336 520 331.616C522.645 332.811 524.693 335.029 526.144 338.272H527.424L527.936 330.72H548.544V388.576C548.544 397.365 547.947 403.979 546.752 408.416C545.643 412.853 542.955 416.267 538.688 418.656C534.507 421.045 527.808 422.24 518.592 422.24ZM520.512 377.696C522.389 377.696 523.712 377.483 524.48 377.056C525.333 376.544 525.931 375.52 526.272 373.984C526.528 372.875 526.699 371.339 526.784 369.376C526.869 367.328 526.912 365.067 526.912 362.592C526.912 357.045 526.741 353.504 526.4 351.968C526.059 350.176 525.461 348.981 524.608 348.384C523.755 347.787 522.389 347.488 520.512 347.488C518.208 347.488 516.629 347.744 515.776 348.256C515.008 348.768 514.496 350.005 514.24 351.968C513.984 353.845 513.856 357.387 513.856 362.592C513.856 367.797 513.984 371.381 514.24 373.344C514.496 375.221 515.008 376.416 515.776 376.928C516.629 377.44 518.208 377.696 520.512 377.696Z" fill="#AFFC41"/>
</svg>
