<svg width="97" height="97" viewBox="0 0 97 97" fill="none" xmlns="http://www.w3.org/2000/svg">
<g clip-path="url(#clip0_132_110)">
<path d="M96.1589 70.5751L86.2164 65.6039L79.8887 49.1442C79.8142 48.9496 79.7004 48.7724 79.5543 48.6238C79.4083 48.4751 79.2332 48.3582 79.0399 48.2803L39.7777 32.586C39.5032 32.4767 39.2027 32.4501 38.9132 32.5093C38.6237 32.5685 38.3579 32.7111 38.1484 32.9194L32.9119 38.1559C32.7063 38.3656 32.5661 38.6305 32.5082 38.9184C32.4504 39.2063 32.4774 39.5048 32.586 39.7776L48.2803 79.0399C48.3582 79.2332 48.4752 79.4083 48.6238 79.5543C48.7725 79.7004 48.9496 79.8142 49.1442 79.8887L65.6039 86.2164L70.5752 96.1589C70.6798 96.3781 70.8357 96.569 71.0296 96.7154C71.2234 96.8617 71.4496 96.9594 71.6891 97.0001C71.7698 97.0076 71.851 97.0076 71.9316 97.0001C72.333 96.9984 72.7172 96.8376 73.0002 96.553L96.553 73.0001C96.7263 72.8329 96.8573 72.6267 96.9351 72.3987C97.0128 72.1707 97.0351 71.9275 97.0001 71.6891C96.9594 71.4496 96.8618 71.2234 96.7154 71.0295C96.569 70.8357 96.3781 70.6798 96.1589 70.5751ZM35.7613 39.5806L36.6024 38.747L56.1464 58.291C54.8584 60.1161 54.3021 62.3581 54.5876 64.5737C54.873 66.7892 55.9794 68.817 57.688 70.256C59.3966 71.695 61.5829 72.4406 63.8148 72.3452C66.0466 72.2498 68.1613 71.3205 69.7409 69.7409C71.3205 68.1613 72.2498 66.0465 72.3452 63.8147C72.4406 61.5829 71.6951 59.3966 70.256 57.688C68.817 55.9794 66.7892 54.873 64.5737 54.5875C62.3581 54.3021 60.1162 54.8584 58.291 56.1464L38.747 36.6024L39.5806 35.7612L77.297 50.8493L83.2458 66.3238L66.3238 83.2458L50.8493 77.2969L35.7613 39.5806ZM63.429 57.5408C64.7911 57.5428 66.1105 58.017 67.1622 58.8827C68.2139 59.7483 68.933 60.9518 69.1969 62.2882C69.4608 63.6245 69.2532 65.0111 68.6095 66.2115C67.9658 67.412 66.9258 68.3521 65.6666 68.8718C64.4075 69.3915 63.0072 69.4585 61.7041 69.0615C60.4011 68.6646 59.276 67.8281 58.5206 66.6946C57.7651 65.5611 57.426 64.2008 57.561 62.8453C57.696 61.4899 58.2968 60.2232 59.261 59.261C60.3675 58.158 61.8666 57.5393 63.429 57.5408ZM72.3484 92.923L68.5594 85.3449L85.3298 68.5745L92.9079 72.3636L72.3484 92.923Z" fill="#252525"/>
<path d="M28.9863 81.086C28.6965 80.8121 28.3128 80.6595 27.914 80.6595C27.5152 80.6595 27.1315 80.8121 26.8417 81.086L24.9168 83.0109C19.7802 76.0394 16.9465 67.639 16.8107 58.9806C16.6749 50.3222 19.2436 41.8371 24.159 34.7079C25.6317 35.5182 27.3273 35.8295 28.9917 35.5951C30.6562 35.3606 32.1998 34.5931 33.3914 33.4076C34.5829 32.222 35.3582 30.6822 35.601 29.019C35.8438 27.3557 35.541 25.6586 34.7381 24.1819C41.8673 19.2665 50.3524 16.6977 59.0108 16.8335C67.6692 16.9694 76.0696 19.8031 83.0411 24.9397L81.0859 26.8418C80.8041 27.126 80.646 27.5101 80.6464 27.9103C80.6452 28.1098 80.6834 28.3075 80.7589 28.4922C80.8343 28.6768 80.9454 28.8448 81.0859 28.9864L87.7698 35.6173C88.0538 35.8996 88.4379 36.058 88.8383 36.058C89.2387 36.058 89.6229 35.8996 89.9068 35.6173L96.5529 28.9712C96.6938 28.8305 96.8056 28.6633 96.8818 28.4793C96.9581 28.2953 96.9974 28.0981 96.9974 27.8989C96.9974 27.6998 96.9581 27.5025 96.8818 27.3186C96.8056 27.1346 96.6938 26.9674 96.5529 26.8266L89.9068 20.1806C89.6229 19.8983 89.2387 19.7399 88.8383 19.7399C88.4379 19.7399 88.0538 19.8983 87.7698 20.1806L85.2008 22.7345C78.8693 17.9701 71.3838 14.9767 63.513 14.0618C55.6422 13.1468 47.6697 14.3433 40.4141 17.5283L49.1517 8.81344C50.1424 9.28683 51.2688 9.39398 52.331 9.11589C53.3932 8.83781 54.3226 8.19245 54.9542 7.29432C55.5859 6.3962 55.879 5.30336 55.7815 4.20968C55.6841 3.11601 55.2024 2.0922 54.4219 1.3199C53.6414 0.547595 52.6126 0.0767198 51.5179 -0.00919027C50.4233 -0.0951004 49.3336 0.209509 48.4422 0.850598C47.5508 1.49169 46.9152 2.42781 46.6484 3.49289C46.3815 4.55797 46.5005 5.68316 46.9843 6.66883L32.2373 21.4386C30.74 20.4342 28.9404 19.9808 27.1459 20.1559C25.3514 20.331 23.6734 21.1237 22.3985 22.3986C21.1236 23.6736 20.3309 25.3516 20.1558 27.146C19.9807 28.9405 20.4341 30.7401 21.4385 32.2374L6.66871 46.9845C5.67918 46.5023 4.55075 46.3865 3.48393 46.6578C2.41712 46.929 1.48102 47.5697 0.841966 48.466C0.202917 49.3622 -0.0976903 50.456 -0.00643821 51.553C0.0848139 52.65 0.562015 53.6791 1.34037 54.4574C2.11872 55.2358 3.14782 55.713 4.24479 55.8042C5.34176 55.8955 6.43555 55.5949 7.33181 54.9558C8.22808 54.3168 8.86875 53.3807 9.14 52.3138C9.41125 51.247 9.2955 50.1186 8.81332 49.1291L17.5509 40.4142C14.3627 47.6678 13.1625 55.6392 14.0734 63.51C14.9844 71.3808 17.9736 78.8673 22.7343 85.2009L20.1729 87.7699C19.8906 88.0539 19.7322 88.438 19.7322 88.8384C19.7322 89.2388 19.8906 89.623 20.1729 89.907L26.8189 96.553C27.1019 96.8376 27.4861 96.9984 27.8875 97.0001C28.0875 97.0002 28.2855 96.9608 28.4702 96.8841C28.6549 96.8073 28.8226 96.6948 28.9636 96.553L35.6171 89.907C35.8994 89.623 36.0579 89.2388 36.0579 88.8384C36.0579 88.438 35.8994 88.0539 35.6171 87.7699L28.9863 81.086ZM88.8535 23.3786L93.3549 27.88L88.8535 32.3814L84.3521 27.88L88.8535 23.3786ZM50.0156 3.50875C50.2408 3.2817 50.5284 3.12666 50.8419 3.06331C51.1553 2.99997 51.4805 3.03116 51.7763 3.15295C52.072 3.27473 52.3248 3.48161 52.5028 3.74734C52.6807 4.01307 52.7757 4.32566 52.7757 4.64547C52.7757 4.96528 52.6807 5.27787 52.5028 5.5436C52.3248 5.80933 52.072 6.01621 51.7763 6.13799C51.4805 6.25978 51.1553 6.29098 50.8419 6.22763C50.5284 6.16428 50.2408 6.00924 50.0156 5.78219C49.8662 5.63298 49.7477 5.45579 49.6668 5.26074C49.5859 5.06569 49.5443 4.85662 49.5443 4.64547C49.5443 4.43433 49.5859 4.22525 49.6668 4.0302C49.7477 3.83516 49.8662 3.65796 50.0156 3.50875ZM24.5531 24.5532C24.9932 24.111 25.5163 23.7601 26.0924 23.5206C26.6686 23.2812 27.2863 23.1579 27.9102 23.1579C28.5341 23.1579 29.1518 23.2812 29.728 23.5206C30.3041 23.7601 30.8272 24.111 31.2673 24.5532C31.9326 25.2174 32.3859 26.064 32.5698 26.9859C32.7538 27.9078 32.6601 28.8636 32.3007 29.7323C31.9413 30.6009 31.3323 31.3435 30.5508 31.8659C29.7692 32.3883 28.8503 32.6672 27.9102 32.6672C26.9701 32.6672 26.0512 32.3883 25.2696 31.8659C24.4881 31.3435 23.8791 30.6009 23.5197 29.7323C23.1603 28.8636 23.0666 27.9078 23.2506 26.9859C23.4345 26.064 23.8878 25.2174 24.5531 24.5532ZM5.78965 52.2891C5.48023 52.5472 5.08549 52.6802 4.68301 52.662C4.28052 52.6438 3.89939 52.4757 3.6145 52.1909C3.3296 51.906 3.16156 51.5248 3.14337 51.1223C3.12518 50.7199 3.25817 50.3251 3.51621 50.0157C3.81949 49.7176 4.22771 49.5506 4.65293 49.5506C5.07816 49.5506 5.48637 49.7176 5.78965 50.0157C5.93904 50.1649 6.05756 50.3421 6.13842 50.5372C6.21929 50.7322 6.26091 50.9413 6.26091 51.1524C6.26091 51.3636 6.21929 51.5726 6.13842 51.7677C6.05756 51.9627 5.93904 52.1399 5.78965 52.2891ZM27.9102 93.3095L23.4088 88.8081L27.9102 84.3067L32.4116 88.8081L27.9102 93.3095Z" fill="#252525"/>
</g>
<defs>
<clipPath id="clip0_132_110">
<rect width="97" height="97" fill="white"/>
</clipPath>
</defs>
</svg>
