<svg width="600" height="150" viewBox="0 0 549 147" fill="none" xmlns="http://www.w3.org/2000/svg">
<path d="M53.496 -181.152C51.1067 -180.555 48.0347 -180.043 44.28 -179.616C40.5253 -179.189 36.9413 -178.976 33.528 -178.976C23.7147 -178.976 16.4613 -180.299 11.768 -182.944C7.16 -185.675 4.088 -190.069 2.552 -196.128C1.10133 -202.272 0.376 -211.573 0.376 -224.032C0.376 -236.405 1.144 -245.664 2.68 -251.808C4.216 -257.952 7.288 -262.347 11.896 -264.992C16.504 -267.723 23.7147 -269.088 33.528 -269.088C36.9413 -269.088 40.44 -268.875 44.024 -268.448C47.6933 -268.021 50.7227 -267.467 53.112 -266.784V-249.76C45.3467 -250.443 40.568 -250.784 38.776 -250.784C33.656 -250.784 30.1573 -250.229 28.28 -249.12C26.4027 -248.096 25.208 -245.92 24.696 -242.592C24.184 -239.264 23.928 -233.077 23.928 -224.032C23.928 -214.901 24.184 -208.672 24.696 -205.344C25.208 -202.101 26.4027 -199.925 28.28 -198.816C30.1573 -197.792 33.656 -197.28 38.776 -197.28C44.2373 -197.28 49.144 -197.621 53.496 -198.304V-181.152ZM63.766 -245.28H84.502L85.014 -234.4H86.166C87.702 -238.837 89.8353 -241.909 92.566 -243.616C95.2967 -245.408 99.0087 -246.304 103.702 -246.304V-226.08C99.0087 -226.08 95.382 -225.525 92.822 -224.416C90.262 -223.307 88.3847 -221.301 87.19 -218.4C85.9953 -215.499 85.398 -211.317 85.398 -205.856V-180H63.766V-245.28ZM164.255 -207.52H130.975C130.975 -203.339 131.231 -200.48 131.743 -198.944C132.255 -197.408 133.364 -196.427 135.071 -196C136.778 -195.573 139.978 -195.36 144.671 -195.36C147.999 -195.36 153.844 -195.616 162.207 -196.128V-181.152C159.818 -180.555 156.49 -180.043 152.223 -179.616C147.956 -179.189 143.732 -178.976 139.551 -178.976C130.25 -178.976 123.466 -180.085 119.199 -182.304C115.018 -184.523 112.372 -187.808 111.263 -192.16C110.154 -196.597 109.599 -203.381 109.599 -212.512C109.599 -221.557 110.154 -228.299 111.263 -232.736C112.372 -237.259 114.89 -240.629 118.815 -242.848C122.74 -245.152 129.012 -246.304 137.631 -246.304C146.25 -246.304 152.394 -245.237 156.063 -243.104C159.818 -241.056 162.122 -237.899 162.975 -233.632C163.828 -229.365 164.255 -222.325 164.255 -212.512V-207.52ZM137.631 -230.944C135.583 -230.944 134.09 -230.688 133.151 -230.176C132.298 -229.664 131.7 -228.555 131.359 -226.848C131.103 -225.227 130.975 -222.453 130.975 -218.528H144.159C144.159 -222.539 143.988 -225.355 143.647 -226.976C143.391 -228.683 142.836 -229.749 141.983 -230.176C141.13 -230.688 139.679 -230.944 137.631 -230.944ZM188.971 -178.976C183.254 -178.976 179.072 -180.555 176.427 -183.712C173.782 -186.955 172.459 -191.989 172.459 -198.816C172.459 -203.936 173.014 -207.904 174.123 -210.72C175.232 -213.536 177.152 -215.584 179.883 -216.864C182.614 -218.144 186.496 -218.784 191.531 -218.784C194.944 -218.784 199.638 -218.613 205.611 -218.272V-220.832C205.611 -223.819 205.312 -225.909 204.715 -227.104C204.118 -228.299 203.008 -229.067 201.387 -229.408C199.766 -229.749 196.864 -229.92 192.683 -229.92C187.734 -229.92 182.102 -229.664 175.787 -229.152V-244.256C183.638 -245.621 191.488 -246.304 199.339 -246.304C207.531 -246.304 213.59 -245.365 217.515 -243.488C221.526 -241.696 224.128 -238.923 225.323 -235.168C226.603 -231.499 227.243 -226.208 227.243 -219.296V-180H206.379L205.867 -187.424H204.715C202.923 -184.181 200.704 -181.963 198.059 -180.768C195.414 -179.573 192.384 -178.976 188.971 -178.976ZM198.827 -194.72C200.363 -194.72 201.558 -194.891 202.411 -195.232C203.35 -195.659 204.075 -196.341 204.587 -197.28C205.27 -198.56 205.611 -200.949 205.611 -204.448V-207.648H198.571C196.864 -207.648 195.584 -207.477 194.731 -207.136C193.963 -206.88 193.451 -206.283 193.195 -205.344C192.939 -204.405 192.811 -202.912 192.811 -200.864C192.811 -198.389 193.152 -196.725 193.835 -195.872C194.518 -195.104 196.182 -194.72 198.827 -194.72ZM244.148 -180V-228.896H234.548V-245.28H244.148V-264.224H266.036V-245.28H278.068V-228.896H266.036V-180H244.148ZM286.013 -257.824V-275.104H308.029V-257.824H286.013ZM286.141 -180V-245.28H308.029V-180H286.141ZM330.896 -180L315.024 -245.28H336.784L345.36 -199.968H346.64L354.832 -245.28H376.336L360.464 -180H330.896ZM435.005 -207.52H401.725C401.725 -203.339 401.981 -200.48 402.493 -198.944C403.005 -197.408 404.114 -196.427 405.821 -196C407.528 -195.573 410.728 -195.36 415.421 -195.36C418.749 -195.36 424.594 -195.616 432.957 -196.128V-181.152C430.568 -180.555 427.24 -180.043 422.973 -179.616C418.706 -179.189 414.482 -178.976 410.301 -178.976C401 -178.976 394.216 -180.085 389.949 -182.304C385.768 -184.523 383.122 -187.808 382.013 -192.16C380.904 -196.597 380.349 -203.381 380.349 -212.512C380.349 -221.557 380.904 -228.299 382.013 -232.736C383.122 -237.259 385.64 -240.629 389.565 -242.848C393.49 -245.152 399.762 -246.304 408.381 -246.304C417 -246.304 423.144 -245.237 426.813 -243.104C430.568 -241.056 432.872 -237.899 433.725 -233.632C434.578 -229.365 435.005 -222.325 435.005 -212.512V-207.52ZM408.381 -230.944C406.333 -230.944 404.84 -230.688 403.901 -230.176C403.048 -229.664 402.45 -228.555 402.109 -226.848C401.853 -225.227 401.725 -222.453 401.725 -218.528H414.909C414.909 -222.539 414.738 -225.355 414.397 -226.976C414.141 -228.683 413.586 -229.749 412.733 -230.176C411.88 -230.688 410.429 -230.944 408.381 -230.944ZM1.912 -118.064H30.328C41.7627 -118.064 49.8693 -116.784 54.648 -114.224C59.512 -111.749 62.4987 -107.739 63.608 -102.192C64.8027 -96.6453 65.4 -87.2587 65.4 -74.032C65.4 -60.8053 64.8027 -51.4187 63.608 -45.872C62.4987 -40.3253 59.512 -36.272 54.648 -33.712C49.8693 -31.2373 41.7627 -30 30.328 -30H1.912V-118.064ZM30.328 -48.304C34.424 -48.304 37.1973 -48.688 38.648 -49.456C40.0987 -50.3093 40.9947 -52.3147 41.336 -55.472C41.7627 -58.7147 41.976 -64.9013 41.976 -74.032C41.976 -83.248 41.7627 -89.4347 41.336 -92.592C40.9947 -95.7493 40.0987 -97.712 38.648 -98.48C37.2827 -99.3333 34.5093 -99.76 30.328 -99.76H25.336V-48.304H30.328ZM129.63 -57.52H96.35C96.35 -53.3387 96.606 -50.48 97.118 -48.944C97.63 -47.408 98.7393 -46.4267 100.446 -46C102.153 -45.5733 105.353 -45.36 110.046 -45.36C113.374 -45.36 119.219 -45.616 127.582 -46.128V-31.152C125.193 -30.5547 121.865 -30.0427 117.598 -29.616C113.331 -29.1893 109.107 -28.976 104.926 -28.976C95.6247 -28.976 88.8407 -30.0853 84.574 -32.304C80.3927 -34.5227 77.7473 -37.808 76.638 -42.16C75.5287 -46.5973 74.974 -53.3813 74.974 -62.512C74.974 -71.5573 75.5287 -78.2987 76.638 -82.736C77.7473 -87.2587 80.2647 -90.6293 84.19 -92.848C88.1153 -95.152 94.3873 -96.304 103.006 -96.304C111.625 -96.304 117.769 -95.2373 121.438 -93.104C125.193 -91.056 127.497 -87.8987 128.35 -83.632C129.203 -79.3653 129.63 -72.3253 129.63 -62.512V-57.52ZM103.006 -80.944C100.958 -80.944 99.4647 -80.688 98.526 -80.176C97.6727 -79.664 97.0753 -78.5547 96.734 -76.848C96.478 -75.2267 96.35 -72.4533 96.35 -68.528H109.534C109.534 -72.5387 109.363 -75.3547 109.022 -76.976C108.766 -78.6827 108.211 -79.7493 107.358 -80.176C106.505 -80.688 105.054 -80.944 103.006 -80.944ZM163.434 -28.976C159.594 -28.976 155.413 -29.1467 150.89 -29.488C146.453 -29.8293 142.655 -30.2987 139.498 -30.896V-45.872C145.386 -45.1893 150.933 -44.848 156.138 -44.848C159.551 -44.848 161.983 -44.9333 163.434 -45.104C164.97 -45.36 165.951 -45.7867 166.378 -46.384C166.805 -47.0667 167.018 -48.1333 167.018 -49.584C167.018 -50.9493 166.89 -51.888 166.634 -52.4C166.463 -52.9973 165.994 -53.424 165.226 -53.68C164.458 -53.936 163.135 -54.192 161.258 -54.448L148.202 -56.24C144.106 -56.752 141.333 -58.5867 139.882 -61.744C138.431 -64.9013 137.706 -69.7653 137.706 -76.336C137.706 -81.712 138.73 -85.8507 140.778 -88.752C142.826 -91.6533 145.642 -93.616 149.226 -94.64C152.895 -95.7493 157.418 -96.304 162.794 -96.304C166.378 -96.304 170.175 -96.0907 174.186 -95.664C178.197 -95.3227 181.439 -94.896 183.914 -94.384V-79.408C176.405 -80.0907 171.199 -80.432 168.298 -80.432C165.141 -80.432 162.879 -80.304 161.514 -80.048C160.149 -79.8773 159.21 -79.4933 158.698 -78.896C158.271 -78.384 158.058 -77.4453 158.058 -76.08C158.058 -74.8 158.143 -73.8613 158.314 -73.264C158.485 -72.752 158.869 -72.368 159.466 -72.112C160.149 -71.9413 161.343 -71.728 163.05 -71.472L174.57 -69.936C177.386 -69.5093 179.69 -68.784 181.482 -67.76C183.274 -66.736 184.682 -64.8587 185.706 -62.128C186.815 -59.4827 187.37 -55.6 187.37 -50.48C187.37 -44.4213 186.389 -39.8133 184.426 -36.656C182.463 -33.584 179.775 -31.536 176.362 -30.512C173.034 -29.488 168.725 -28.976 163.434 -28.976ZM196.638 -107.824V-125.104H218.654V-107.824H196.638ZM196.766 -30V-95.28H218.654V-30H196.766ZM255.217 -3.76C251.548 -3.76 247.708 -3.93067 243.697 -4.272C239.686 -4.61333 236.401 -4.99733 233.841 -5.424V-20.272L249.585 -20.144C254.364 -20.144 257.649 -20.4 259.441 -20.912C261.233 -21.424 262.342 -22.4907 262.769 -24.112C263.281 -25.7333 263.537 -28.72 263.537 -33.072V-38.32H262.513C260.977 -35.4187 258.972 -33.4133 256.497 -32.304C254.022 -31.1947 250.993 -30.64 247.409 -30.64C242.716 -30.64 239.046 -31.6213 236.401 -33.584C233.756 -35.5467 231.836 -38.8747 230.641 -43.568C229.446 -48.3467 228.849 -55.0027 228.849 -63.536C228.849 -72.24 229.446 -78.9387 230.641 -83.632C231.921 -88.3253 233.841 -91.6107 236.401 -93.488C239.046 -95.3653 242.673 -96.304 247.281 -96.304C250.865 -96.304 253.98 -95.664 256.625 -94.384C259.27 -93.1893 261.318 -90.9707 262.769 -87.728H264.049L264.561 -95.28H285.169V-37.424C285.169 -28.6347 284.572 -22.0213 283.377 -17.584C282.268 -13.1467 279.58 -9.73333 275.313 -7.344C271.132 -4.95467 264.433 -3.76 255.217 -3.76ZM257.137 -48.304C259.014 -48.304 260.337 -48.5173 261.105 -48.944C261.958 -49.456 262.556 -50.48 262.897 -52.016C263.153 -53.1253 263.324 -54.6613 263.409 -56.624C263.494 -58.672 263.537 -60.9333 263.537 -63.408C263.537 -68.9547 263.366 -72.496 263.025 -74.032C262.684 -75.824 262.086 -77.0187 261.233 -77.616C260.38 -78.2133 259.014 -78.512 257.137 -78.512C254.833 -78.512 253.254 -78.256 252.401 -77.744C251.633 -77.232 251.121 -75.9947 250.865 -74.032C250.609 -72.1547 250.481 -68.6133 250.481 -63.408C250.481 -58.2027 250.609 -54.6187 250.865 -52.656C251.121 -50.7787 251.633 -49.584 252.401 -49.072C253.254 -48.56 254.833 -48.304 257.137 -48.304ZM330.805 -64.816C330.805 -69.5093 330.677 -72.7093 330.421 -74.416C330.25 -76.1227 329.781 -77.1893 329.013 -77.616C328.33 -78.128 326.965 -78.384 324.917 -78.384C322.869 -78.384 321.418 -78.0427 320.565 -77.36C319.797 -76.7627 319.285 -75.5253 319.029 -73.648C318.858 -71.856 318.773 -68.6133 318.773 -63.92V-30H297.141V-95.28H317.877L318.389 -87.728H319.413C322.4 -93.4453 327.776 -96.304 335.541 -96.304C340.32 -96.304 343.904 -95.408 346.293 -93.616C348.768 -91.824 350.389 -89.2213 351.157 -85.808C352.01 -82.48 352.437 -77.8293 352.437 -71.856V-30H330.805V-64.816ZM69.496 120V62.528H68.344L55.416 120H37.752L24.824 62.528H23.672V120H1.912V31.936H35.064L46.584 83.52H47.608L58.872 31.936H91.896V120H69.496ZM118.846 121.024C113.129 121.024 108.947 119.445 106.302 116.288C103.657 113.045 102.334 108.011 102.334 101.184C102.334 96.064 102.889 92.096 103.998 89.28C105.107 86.464 107.027 84.416 109.758 83.136C112.489 81.856 116.371 81.216 121.406 81.216C124.819 81.216 129.513 81.3867 135.486 81.728V79.168C135.486 76.1813 135.187 74.0907 134.59 72.896C133.993 71.7013 132.883 70.9333 131.262 70.592C129.641 70.2507 126.739 70.08 122.558 70.08C117.609 70.08 111.977 70.336 105.662 70.848V55.744C113.513 54.3787 121.363 53.696 129.214 53.696C137.406 53.696 143.465 54.6347 147.39 56.512C151.401 58.304 154.003 61.0773 155.198 64.832C156.478 68.5013 157.118 73.792 157.118 80.704V120H136.254L135.742 112.576H134.59C132.798 115.819 130.579 118.037 127.934 119.232C125.289 120.427 122.259 121.024 118.846 121.024ZM128.702 105.28C130.238 105.28 131.433 105.109 132.286 104.768C133.225 104.341 133.95 103.659 134.462 102.72C135.145 101.44 135.486 99.0507 135.486 95.552V92.352H128.446C126.739 92.352 125.459 92.5227 124.606 92.864C123.838 93.12 123.326 93.7173 123.07 94.656C122.814 95.5947 122.686 97.088 122.686 99.136C122.686 101.611 123.027 103.275 123.71 104.128C124.393 104.896 126.057 105.28 128.702 105.28ZM169.016 54.72H189.752L190.264 65.6H191.416C192.952 61.1627 195.085 58.0907 197.816 56.384C200.547 54.592 204.259 53.696 208.952 53.696V73.92C204.259 73.92 200.632 74.4747 198.072 75.584C195.512 76.6933 193.635 78.6987 192.44 81.6C191.245 84.5013 190.648 88.6827 190.648 94.144V120H169.016V54.72ZM253.49 120L241.458 95.808H238.898V120H217.266V24.896H238.898V79.424H241.458L254.13 54.72H276.658L259.378 85.696L276.914 120H253.49ZM335.255 92.48H301.975C301.975 96.6613 302.231 99.52 302.743 101.056C303.255 102.592 304.364 103.573 306.071 104C307.778 104.427 310.978 104.64 315.671 104.64C318.999 104.64 324.844 104.384 333.207 103.872V118.848C330.818 119.445 327.49 119.957 323.223 120.384C318.956 120.811 314.732 121.024 310.551 121.024C301.25 121.024 294.466 119.915 290.199 117.696C286.018 115.477 283.372 112.192 282.263 107.84C281.154 103.403 280.599 96.6187 280.599 87.488C280.599 78.4427 281.154 71.7013 282.263 67.264C283.372 62.7413 285.89 59.3707 289.815 57.152C293.74 54.848 300.012 53.696 308.631 53.696C317.25 53.696 323.394 54.7627 327.063 56.896C330.818 58.944 333.122 62.1013 333.975 66.368C334.828 70.6347 335.255 77.6747 335.255 87.488V92.48ZM308.631 69.056C306.583 69.056 305.09 69.312 304.151 69.824C303.298 70.336 302.7 71.4453 302.359 73.152C302.103 74.7733 301.975 77.5467 301.975 81.472H315.159C315.159 77.4613 314.988 74.6453 314.647 73.024C314.391 71.3173 313.836 70.2507 312.983 69.824C312.13 69.312 310.679 69.056 308.631 69.056ZM350.898 120V71.104H341.298V54.72H350.898V35.776H372.786V54.72H384.818V71.104H372.786V120H350.898ZM392.763 42.176V24.896H414.779V42.176H392.763ZM392.891 120V54.72H414.779V120H392.891ZM460.43 85.184C460.43 80.4907 460.302 77.2907 460.046 75.584C459.875 73.8773 459.406 72.8107 458.638 72.384C457.955 71.872 456.59 71.616 454.542 71.616C452.494 71.616 451.043 71.9573 450.19 72.64C449.422 73.2373 448.91 74.4747 448.654 76.352C448.483 78.144 448.398 81.3867 448.398 86.08V120H426.766V54.72H447.502L448.014 62.272H449.038C452.025 56.5547 457.401 53.696 465.166 53.696C469.945 53.696 473.529 54.592 475.918 56.384C478.393 58.176 480.014 60.7787 480.782 64.192C481.635 67.52 482.062 72.1707 482.062 78.144V120H460.43V85.184ZM518.592 146.24C514.923 146.24 511.083 146.069 507.072 145.728C503.061 145.387 499.776 145.003 497.216 144.576V129.728L512.96 129.856C517.739 129.856 521.024 129.6 522.816 129.088C524.608 128.576 525.717 127.509 526.144 125.888C526.656 124.267 526.912 121.28 526.912 116.928V111.68H525.888C524.352 114.581 522.347 116.587 519.872 117.696C517.397 118.805 514.368 119.36 510.784 119.36C506.091 119.36 502.421 118.379 499.776 116.416C497.131 114.453 495.211 111.125 494.016 106.432C492.821 101.653 492.224 94.9973 492.224 86.464C492.224 77.76 492.821 71.0613 494.016 66.368C495.296 61.6747 497.216 58.3893 499.776 56.512C502.421 54.6347 506.048 53.696 510.656 53.696C514.24 53.696 517.355 54.336 520 55.616C522.645 56.8107 524.693 59.0293 526.144 62.272H527.424L527.936 54.72H548.544V112.576C548.544 121.365 547.947 127.979 546.752 132.416C545.643 136.853 542.955 140.267 538.688 142.656C534.507 145.045 527.808 146.24 518.592 146.24ZM520.512 101.696C522.389 101.696 523.712 101.483 524.48 101.056C525.333 100.544 525.931 99.52 526.272 97.984C526.528 96.8747 526.699 95.3387 526.784 93.376C526.869 91.328 526.912 89.0667 526.912 86.592C526.912 81.0453 526.741 77.504 526.4 75.968C526.059 74.176 525.461 72.9813 524.608 72.384C523.755 71.7867 522.389 71.488 520.512 71.488C518.208 71.488 516.629 71.744 515.776 72.256C515.008 72.768 514.496 74.0053 514.24 75.968C513.984 77.8453 513.856 81.3867 513.856 86.592C513.856 91.7973 513.984 95.3813 514.24 97.344C514.496 99.2213 515.008 100.416 515.776 100.928C516.629 101.44 518.208 101.696 520.512 101.696Z" fill="#AFFC41"/>
</svg>
