<svg width="600" height="150" viewBox="0 0 549 150" fill="none" xmlns="http://www.w3.org/2000/svg">
<path d="M53.496 -31.152C51.1067 -30.5547 48.0347 -30.0427 44.28 -29.616C40.5253 -29.1893 36.9413 -28.976 33.528 -28.976C23.7147 -28.976 16.4613 -30.2987 11.768 -32.944C7.16 -35.6747 4.088 -40.0693 2.552 -46.128C1.10133 -52.272 0.376 -61.5733 0.376 -74.032C0.376 -86.4053 1.144 -95.664 2.68 -101.808C4.216 -107.952 7.288 -112.347 11.896 -114.992C16.504 -117.723 23.7147 -119.088 33.528 -119.088C36.9413 -119.088 40.44 -118.875 44.024 -118.448C47.6933 -118.021 50.7227 -117.467 53.112 -116.784V-99.76C45.3467 -100.443 40.568 -100.784 38.776 -100.784C33.656 -100.784 30.1573 -100.229 28.28 -99.12C26.4027 -98.096 25.208 -95.92 24.696 -92.592C24.184 -89.264 23.928 -83.0773 23.928 -74.032C23.928 -64.9013 24.184 -58.672 24.696 -55.344C25.208 -52.1013 26.4027 -49.9253 28.28 -48.816C30.1573 -47.792 33.656 -47.28 38.776 -47.28C44.2373 -47.28 49.144 -47.6213 53.496 -48.304V-31.152ZM63.766 -95.28H84.502L85.014 -84.4H86.166C87.702 -88.8373 89.8353 -91.9093 92.566 -93.616C95.2967 -95.408 99.0087 -96.304 103.702 -96.304V-76.08C99.0087 -76.08 95.382 -75.5253 92.822 -74.416C90.262 -73.3067 88.3847 -71.3013 87.19 -68.4C85.9953 -65.4987 85.398 -61.3173 85.398 -55.856V-30H63.766V-95.28ZM164.255 -57.52H130.975C130.975 -53.3387 131.231 -50.48 131.743 -48.944C132.255 -47.408 133.364 -46.4267 135.071 -46C136.778 -45.5733 139.978 -45.36 144.671 -45.36C147.999 -45.36 153.844 -45.616 162.207 -46.128V-31.152C159.818 -30.5547 156.49 -30.0427 152.223 -29.616C147.956 -29.1893 143.732 -28.976 139.551 -28.976C130.25 -28.976 123.466 -30.0853 119.199 -32.304C115.018 -34.5227 112.372 -37.808 111.263 -42.16C110.154 -46.5973 109.599 -53.3813 109.599 -62.512C109.599 -71.5573 110.154 -78.2987 111.263 -82.736C112.372 -87.2587 114.89 -90.6293 118.815 -92.848C122.74 -95.152 129.012 -96.304 137.631 -96.304C146.25 -96.304 152.394 -95.2373 156.063 -93.104C159.818 -91.056 162.122 -87.8987 162.975 -83.632C163.828 -79.3653 164.255 -72.3253 164.255 -62.512V-57.52ZM137.631 -80.944C135.583 -80.944 134.09 -80.688 133.151 -80.176C132.298 -79.664 131.7 -78.5547 131.359 -76.848C131.103 -75.2267 130.975 -72.4533 130.975 -68.528H144.159C144.159 -72.5387 143.988 -75.3547 143.647 -76.976C143.391 -78.6827 142.836 -79.7493 141.983 -80.176C141.13 -80.688 139.679 -80.944 137.631 -80.944ZM188.971 -28.976C183.254 -28.976 179.072 -30.5547 176.427 -33.712C173.782 -36.9547 172.459 -41.9893 172.459 -48.816C172.459 -53.936 173.014 -57.904 174.123 -60.72C175.232 -63.536 177.152 -65.584 179.883 -66.864C182.614 -68.144 186.496 -68.784 191.531 -68.784C194.944 -68.784 199.638 -68.6133 205.611 -68.272V-70.832C205.611 -73.8187 205.312 -75.9093 204.715 -77.104C204.118 -78.2987 203.008 -79.0667 201.387 -79.408C199.766 -79.7493 196.864 -79.92 192.683 -79.92C187.734 -79.92 182.102 -79.664 175.787 -79.152V-94.256C183.638 -95.6213 191.488 -96.304 199.339 -96.304C207.531 -96.304 213.59 -95.3653 217.515 -93.488C221.526 -91.696 224.128 -88.9227 225.323 -85.168C226.603 -81.4987 227.243 -76.208 227.243 -69.296V-30H206.379L205.867 -37.424H204.715C202.923 -34.1813 200.704 -31.9627 198.059 -30.768C195.414 -29.5733 192.384 -28.976 188.971 -28.976ZM198.827 -44.72C200.363 -44.72 201.558 -44.8907 202.411 -45.232C203.35 -45.6587 204.075 -46.3413 204.587 -47.28C205.27 -48.56 205.611 -50.9493 205.611 -54.448V-57.648H198.571C196.864 -57.648 195.584 -57.4773 194.731 -57.136C193.963 -56.88 193.451 -56.2827 193.195 -55.344C192.939 -54.4053 192.811 -52.912 192.811 -50.864C192.811 -48.3893 193.152 -46.7253 193.835 -45.872C194.518 -45.104 196.182 -44.72 198.827 -44.72ZM244.148 -30V-78.896H234.548V-95.28H244.148V-114.224H266.036V-95.28H278.068V-78.896H266.036V-30H244.148ZM286.013 -107.824V-125.104H308.029V-107.824H286.013ZM286.141 -30V-95.28H308.029V-30H286.141ZM330.896 -30L315.024 -95.28H336.784L345.36 -49.968H346.64L354.832 -95.28H376.336L360.464 -30H330.896ZM435.005 -57.52H401.725C401.725 -53.3387 401.981 -50.48 402.493 -48.944C403.005 -47.408 404.114 -46.4267 405.821 -46C407.528 -45.5733 410.728 -45.36 415.421 -45.36C418.749 -45.36 424.594 -45.616 432.957 -46.128V-31.152C430.568 -30.5547 427.24 -30.0427 422.973 -29.616C418.706 -29.1893 414.482 -28.976 410.301 -28.976C401 -28.976 394.216 -30.0853 389.949 -32.304C385.768 -34.5227 383.122 -37.808 382.013 -42.16C380.904 -46.5973 380.349 -53.3813 380.349 -62.512C380.349 -71.5573 380.904 -78.2987 382.013 -82.736C383.122 -87.2587 385.64 -90.6293 389.565 -92.848C393.49 -95.152 399.762 -96.304 408.381 -96.304C417 -96.304 423.144 -95.2373 426.813 -93.104C430.568 -91.056 432.872 -87.8987 433.725 -83.632C434.578 -79.3653 435.005 -72.3253 435.005 -62.512V-57.52ZM408.381 -80.944C406.333 -80.944 404.84 -80.688 403.901 -80.176C403.048 -79.664 402.45 -78.5547 402.109 -76.848C401.853 -75.2267 401.725 -72.4533 401.725 -68.528H414.909C414.909 -72.5387 414.738 -75.3547 414.397 -76.976C414.141 -78.6827 413.586 -79.7493 412.733 -80.176C411.88 -80.688 410.429 -80.944 408.381 -80.944ZM1.912 31.936H30.328C41.7627 31.936 49.8693 33.216 54.648 35.776C59.512 38.2507 62.4987 42.2613 63.608 47.808C64.8027 53.3547 65.4 62.7413 65.4 75.968C65.4 89.1947 64.8027 98.5813 63.608 104.128C62.4987 109.675 59.512 113.728 54.648 116.288C49.8693 118.763 41.7627 120 30.328 120H1.912V31.936ZM30.328 101.696C34.424 101.696 37.1973 101.312 38.648 100.544C40.0987 99.6907 40.9947 97.6853 41.336 94.528C41.7627 91.2853 41.976 85.0987 41.976 75.968C41.976 66.752 41.7627 60.5653 41.336 57.408C40.9947 54.2507 40.0987 52.288 38.648 51.52C37.2827 50.6667 34.5093 50.24 30.328 50.24H25.336V101.696H30.328ZM129.63 92.48H96.35C96.35 96.6613 96.606 99.52 97.118 101.056C97.63 102.592 98.7393 103.573 100.446 104C102.153 104.427 105.353 104.64 110.046 104.64C113.374 104.64 119.219 104.384 127.582 103.872V118.848C125.193 119.445 121.865 119.957 117.598 120.384C113.331 120.811 109.107 121.024 104.926 121.024C95.6247 121.024 88.8407 119.915 84.574 117.696C80.3927 115.477 77.7473 112.192 76.638 107.84C75.5287 103.403 74.974 96.6187 74.974 87.488C74.974 78.4427 75.5287 71.7013 76.638 67.264C77.7473 62.7413 80.2647 59.3707 84.19 57.152C88.1153 54.848 94.3873 53.696 103.006 53.696C111.625 53.696 117.769 54.7627 121.438 56.896C125.193 58.944 127.497 62.1013 128.35 66.368C129.203 70.6347 129.63 77.6747 129.63 87.488V92.48ZM103.006 69.056C100.958 69.056 99.4647 69.312 98.526 69.824C97.6727 70.336 97.0753 71.4453 96.734 73.152C96.478 74.7733 96.35 77.5467 96.35 81.472H109.534C109.534 77.4613 109.363 74.6453 109.022 73.024C108.766 71.3173 108.211 70.2507 107.358 69.824C106.505 69.312 105.054 69.056 103.006 69.056ZM163.434 121.024C159.594 121.024 155.413 120.853 150.89 120.512C146.453 120.171 142.655 119.701 139.498 119.104V104.128C145.386 104.811 150.933 105.152 156.138 105.152C159.551 105.152 161.983 105.067 163.434 104.896C164.97 104.64 165.951 104.213 166.378 103.616C166.805 102.933 167.018 101.867 167.018 100.416C167.018 99.0507 166.89 98.112 166.634 97.6C166.463 97.0027 165.994 96.576 165.226 96.32C164.458 96.064 163.135 95.808 161.258 95.552L148.202 93.76C144.106 93.248 141.333 91.4133 139.882 88.256C138.431 85.0987 137.706 80.2347 137.706 73.664C137.706 68.288 138.73 64.1493 140.778 61.248C142.826 58.3467 145.642 56.384 149.226 55.36C152.895 54.2507 157.418 53.696 162.794 53.696C166.378 53.696 170.175 53.9093 174.186 54.336C178.197 54.6773 181.439 55.104 183.914 55.616V70.592C176.405 69.9093 171.199 69.568 168.298 69.568C165.141 69.568 162.879 69.696 161.514 69.952C160.149 70.1227 159.21 70.5067 158.698 71.104C158.271 71.616 158.058 72.5547 158.058 73.92C158.058 75.2 158.143 76.1387 158.314 76.736C158.485 77.248 158.869 77.632 159.466 77.888C160.149 78.0587 161.343 78.272 163.05 78.528L174.57 80.064C177.386 80.4907 179.69 81.216 181.482 82.24C183.274 83.264 184.682 85.1413 185.706 87.872C186.815 90.5173 187.37 94.4 187.37 99.52C187.37 105.579 186.389 110.187 184.426 113.344C182.463 116.416 179.775 118.464 176.362 119.488C173.034 120.512 168.725 121.024 163.434 121.024ZM196.638 42.176V24.896H218.654V42.176H196.638ZM196.766 120V54.72H218.654V120H196.766ZM255.217 146.24C251.548 146.24 247.708 146.069 243.697 145.728C239.686 145.387 236.401 145.003 233.841 144.576V129.728L249.585 129.856C254.364 129.856 257.649 129.6 259.441 129.088C261.233 128.576 262.342 127.509 262.769 125.888C263.281 124.267 263.537 121.28 263.537 116.928V111.68H262.513C260.977 114.581 258.972 116.587 256.497 117.696C254.022 118.805 250.993 119.36 247.409 119.36C242.716 119.36 239.046 118.379 236.401 116.416C233.756 114.453 231.836 111.125 230.641 106.432C229.446 101.653 228.849 94.9973 228.849 86.464C228.849 77.76 229.446 71.0613 230.641 66.368C231.921 61.6747 233.841 58.3893 236.401 56.512C239.046 54.6347 242.673 53.696 247.281 53.696C250.865 53.696 253.98 54.336 256.625 55.616C259.27 56.8107 261.318 59.0293 262.769 62.272H264.049L264.561 54.72H285.169V112.576C285.169 121.365 284.572 127.979 283.377 132.416C282.268 136.853 279.58 140.267 275.313 142.656C271.132 145.045 264.433 146.24 255.217 146.24ZM257.137 101.696C259.014 101.696 260.337 101.483 261.105 101.056C261.958 100.544 262.556 99.52 262.897 97.984C263.153 96.8747 263.324 95.3387 263.409 93.376C263.494 91.328 263.537 89.0667 263.537 86.592C263.537 81.0453 263.366 77.504 263.025 75.968C262.684 74.176 262.086 72.9813 261.233 72.384C260.38 71.7867 259.014 71.488 257.137 71.488C254.833 71.488 253.254 71.744 252.401 72.256C251.633 72.768 251.121 74.0053 250.865 75.968C250.609 77.8453 250.481 81.3867 250.481 86.592C250.481 91.7973 250.609 95.3813 250.865 97.344C251.121 99.2213 251.633 100.416 252.401 100.928C253.254 101.44 254.833 101.696 257.137 101.696ZM330.805 85.184C330.805 80.4907 330.677 77.2907 330.421 75.584C330.25 73.8773 329.781 72.8107 329.013 72.384C328.33 71.872 326.965 71.616 324.917 71.616C322.869 71.616 321.418 71.9573 320.565 72.64C319.797 73.2373 319.285 74.4747 319.029 76.352C318.858 78.144 318.773 81.3867 318.773 86.08V120H297.141V54.72H317.877L318.389 62.272H319.413C322.4 56.5547 327.776 53.696 335.541 53.696C340.32 53.696 343.904 54.592 346.293 56.384C348.768 58.176 350.389 60.7787 351.157 64.192C352.01 67.52 352.437 72.1707 352.437 78.144V120H330.805V85.184ZM69.496 270V212.528H68.344L55.416 270H37.752L24.824 212.528H23.672V270H1.912V181.936H35.064L46.584 233.52H47.608L58.872 181.936H91.896V270H69.496ZM118.846 271.024C113.129 271.024 108.947 269.445 106.302 266.288C103.657 263.045 102.334 258.011 102.334 251.184C102.334 246.064 102.889 242.096 103.998 239.28C105.107 236.464 107.027 234.416 109.758 233.136C112.489 231.856 116.371 231.216 121.406 231.216C124.819 231.216 129.513 231.387 135.486 231.728V229.168C135.486 226.181 135.187 224.091 134.59 222.896C133.993 221.701 132.883 220.933 131.262 220.592C129.641 220.251 126.739 220.08 122.558 220.08C117.609 220.08 111.977 220.336 105.662 220.848V205.744C113.513 204.379 121.363 203.696 129.214 203.696C137.406 203.696 143.465 204.635 147.39 206.512C151.401 208.304 154.003 211.077 155.198 214.832C156.478 218.501 157.118 223.792 157.118 230.704V270H136.254L135.742 262.576H134.59C132.798 265.819 130.579 268.037 127.934 269.232C125.289 270.427 122.259 271.024 118.846 271.024ZM128.702 255.28C130.238 255.28 131.433 255.109 132.286 254.768C133.225 254.341 133.95 253.659 134.462 252.72C135.145 251.44 135.486 249.051 135.486 245.552V242.352H128.446C126.739 242.352 125.459 242.523 124.606 242.864C123.838 243.12 123.326 243.717 123.07 244.656C122.814 245.595 122.686 247.088 122.686 249.136C122.686 251.611 123.027 253.275 123.71 254.128C124.393 254.896 126.057 255.28 128.702 255.28ZM169.016 204.72H189.752L190.264 215.6H191.416C192.952 211.163 195.085 208.091 197.816 206.384C200.547 204.592 204.259 203.696 208.952 203.696V223.92C204.259 223.92 200.632 224.475 198.072 225.584C195.512 226.693 193.635 228.699 192.44 231.6C191.245 234.501 190.648 238.683 190.648 244.144V270H169.016V204.72ZM253.49 270L241.458 245.808H238.898V270H217.266V174.896H238.898V229.424H241.458L254.13 204.72H276.658L259.378 235.696L276.914 270H253.49ZM335.255 242.48H301.975C301.975 246.661 302.231 249.52 302.743 251.056C303.255 252.592 304.364 253.573 306.071 254C307.778 254.427 310.978 254.64 315.671 254.64C318.999 254.64 324.844 254.384 333.207 253.872V268.848C330.818 269.445 327.49 269.957 323.223 270.384C318.956 270.811 314.732 271.024 310.551 271.024C301.25 271.024 294.466 269.915 290.199 267.696C286.018 265.477 283.372 262.192 282.263 257.84C281.154 253.403 280.599 246.619 280.599 237.488C280.599 228.443 281.154 221.701 282.263 217.264C283.372 212.741 285.89 209.371 289.815 207.152C293.74 204.848 300.012 203.696 308.631 203.696C317.25 203.696 323.394 204.763 327.063 206.896C330.818 208.944 333.122 212.101 333.975 216.368C334.828 220.635 335.255 227.675 335.255 237.488V242.48ZM308.631 219.056C306.583 219.056 305.09 219.312 304.151 219.824C303.298 220.336 302.7 221.445 302.359 223.152C302.103 224.773 301.975 227.547 301.975 231.472H315.159C315.159 227.461 314.988 224.645 314.647 223.024C314.391 221.317 313.836 220.251 312.983 219.824C312.13 219.312 310.679 219.056 308.631 219.056ZM350.898 270V221.104H341.298V204.72H350.898V185.776H372.786V204.72H384.818V221.104H372.786V270H350.898ZM392.763 192.176V174.896H414.779V192.176H392.763ZM392.891 270V204.72H414.779V270H392.891ZM460.43 235.184C460.43 230.491 460.302 227.291 460.046 225.584C459.875 223.877 459.406 222.811 458.638 222.384C457.955 221.872 456.59 221.616 454.542 221.616C452.494 221.616 451.043 221.957 450.19 222.64C449.422 223.237 448.91 224.475 448.654 226.352C448.483 228.144 448.398 231.387 448.398 236.08V270H426.766V204.72H447.502L448.014 212.272H449.038C452.025 206.555 457.401 203.696 465.166 203.696C469.945 203.696 473.529 204.592 475.918 206.384C478.393 208.176 480.014 210.779 480.782 214.192C481.635 217.52 482.062 222.171 482.062 228.144V270H460.43V235.184ZM518.592 296.24C514.923 296.24 511.083 296.069 507.072 295.728C503.061 295.387 499.776 295.003 497.216 294.576V279.728L512.96 279.856C517.739 279.856 521.024 279.6 522.816 279.088C524.608 278.576 525.717 277.509 526.144 275.888C526.656 274.267 526.912 271.28 526.912 266.928V261.68H525.888C524.352 264.581 522.347 266.587 519.872 267.696C517.397 268.805 514.368 269.36 510.784 269.36C506.091 269.36 502.421 268.379 499.776 266.416C497.131 264.453 495.211 261.125 494.016 256.432C492.821 251.653 492.224 244.997 492.224 236.464C492.224 227.76 492.821 221.061 494.016 216.368C495.296 211.675 497.216 208.389 499.776 206.512C502.421 204.635 506.048 203.696 510.656 203.696C514.24 203.696 517.355 204.336 520 205.616C522.645 206.811 524.693 209.029 526.144 212.272H527.424L527.936 204.72H548.544V262.576C548.544 271.365 547.947 277.979 546.752 282.416C545.643 286.853 542.955 290.267 538.688 292.656C534.507 295.045 527.808 296.24 518.592 296.24ZM520.512 251.696C522.389 251.696 523.712 251.483 524.48 251.056C525.333 250.544 525.931 249.52 526.272 247.984C526.528 246.875 526.699 245.339 526.784 243.376C526.869 241.328 526.912 239.067 526.912 236.592C526.912 231.045 526.741 227.504 526.4 225.968C526.059 224.176 525.461 222.981 524.608 222.384C523.755 221.787 522.389 221.488 520.512 221.488C518.208 221.488 516.629 221.744 515.776 222.256C515.008 222.768 514.496 224.005 514.24 225.968C513.984 227.845 513.856 231.387 513.856 236.592C513.856 241.797 513.984 245.381 514.24 247.344C514.496 249.221 515.008 250.416 515.776 250.928C516.629 251.44 518.208 251.696 520.512 251.696Z" fill="#AFFC41"/>
</svg>
